<?xml version="1.0" standalone="no"?>
<!DOCTYPE svg PUBLIC "-//W3C//DTD SVG 20010904//EN"
 "http://www.w3.org/TR/2001/REC-SVG-20010904/DTD/svg10.dtd">
<svg version="1.0" xmlns="http://www.w3.org/2000/svg"
 width="398.000000pt" height="398.000000pt" viewBox="0 0 398.000000 398.000000"
 preserveAspectRatio="xMidYMid meet">
<metadata>
Created by potrace 1.11, written by Peter Selinger 2001-2013
</metadata>
<g transform="translate(0.000000,398.000000) scale(0.100000,-0.100000)"
fill="#000000" stroke="none">
<path d="M1829 3976 c-2 -2 -35 -7 -74 -11 -149 -14 -382 -76 -540 -142 -79
-34 -237 -116 -277 -144 -14 -10 -29 -19 -32 -19 -3 0 -14 -6 -23 -14 -10 -8
-58 -45 -108 -82 -126 -95 -277 -248 -388 -394 -16 -21 -77 -114 -115 -175
-36 -58 -109 -211 -145 -305 -25 -63 -74 -235 -83 -289 -3 -14 -7 -33 -9 -41
-3 -8 -7 -33 -10 -55 -4 -22 -9 -51 -12 -65 -12 -59 -9 -428 5 -520 14 -95 71
-328 97 -395 134 -355 327 -633 590 -852 50 -41 101 -83 114 -95 14 -11 35
-24 48 -29 13 -5 23 -13 23 -19 0 -5 5 -10 10 -10 6 0 34 -15 63 -33 106 -67
343 -176 389 -180 10 -1 18 -4 18 -7 0 -4 6 -7 13 -8 6 -1 64 -14 127 -30 63
-16 138 -33 165 -37 28 -4 61 -9 75 -12 51 -8 367 -11 430 -3 36 4 91 11 123
15 47 5 178 36 297 70 94 27 300 121 409 186 34 22 67 39 72 39 5 0 9 3 9 8 0
4 18 18 40 32 22 13 40 28 40 32 0 4 6 8 14 8 8 0 16 3 18 8 2 4 26 25 53 46
50 40 208 195 255 251 14 17 46 59 73 95 26 36 52 71 58 78 41 50 154 264 197
377 13 33 28 69 32 80 18 42 68 233 76 290 2 17 6 41 9 55 20 89 27 415 12
540 -18 158 -73 372 -128 505 -29 72 -112 241 -124 255 -8 8 -14 18 -14 23 -1
7 -31 58 -41 67 -3 3 -11 17 -19 33 -8 15 -18 27 -23 27 -4 0 -8 5 -8 10 0 10
-8 22 -40 59 -8 9 -28 35 -45 56 -69 93 -353 355 -384 355 -6 0 -11 5 -11 10
0 6 -5 10 -10 10 -6 0 -16 5 -23 10 -46 40 -234 143 -352 192 -125 52 -331
109 -450 124 -16 2 -41 6 -55 9 -28 7 -405 17 -411 11z"/>
</g>
</svg>
